<?xml version="1.0" standalone="no"?>
<!DOCTYPE svg PUBLIC "-//W3C//DTD SVG 1.1//EN" "http://www.w3.org/Graphics/SVG/1.1/DTD/svg11.dtd" >
<svg xmlns="http://www.w3.org/2000/svg" xmlns:xlink="http://www.w3.org/1999/xlink" version="1.1">
<metadata></metadata>
<defs>
<font id="dearjoe_5_dearjoe5casualtrial" horiz-adv-x="618" >
<font-face units-per-em="2048" ascent="1638" descent="-410" />
<missing-glyph horiz-adv-x="500" />
<glyph horiz-adv-x="0" />
<glyph horiz-adv-x="682" />
<glyph unicode=" " />
<glyph unicode="A" horiz-adv-x="1284" d="M47 115q0 65 121 213l-18 41q0 23 22 51q20 20 53 33q106 106 312 462q22 37 159 277q37 73 105 194q17 24 51 27q11 1 31 4t28 4q61 58 76 203q70 49 86 49q8 0 37 -15.5t35 -25.5q1 -6 1 -13q0 -21 -5 -56q-95 -197 -129 -457q-14 -148 -27 -479l1 -7q2 -7 6 -12.5 t12 -5.5q22 0 71 21l19 -21q8 9 12 13t11.5 6.5t10 2.5t17.5 0.5t24 0.5h48l86 -13q0 -4 20 -24q-219 -48 -334 -86q2 -41 19 -281q14 -178 14 -201q0 -13 -33 -49q-44 -52 -53 -61h-1q-9 0 -54 53q-45 54 -45 90q0 14 18 35q23 26 25 33q4 12 4 78q0 30 -13 163 q-9 125 -14 125q-14 0 -115 -36q-107 -35 -114 -35q-19 -2 -178 -60q-154 -57 -170 -65q-13 -23 -37.5 -72t-36.5 -72q-71 -135 -103 -135q-27 0 -41 39q-14 32 -14 64zM414 502l73 14h1q35 0 372 84q0 103 25 420q14 112 14 203q-175 -238 -221 -303q-170 -238 -264 -418z " />
<glyph unicode="B" horiz-adv-x="1554" d="M72 209q0 6 45 102q39 86 69 135q43 68 136 265l165 356q101 213 201 377v26q-11 11 -63 11q-53 0 -127 -23q-84 -27 -90 -78q-1 -14 -3.5 -46t-3.5 -50q-9 -61 -71 -61q-30 0 -86 59t-56 82q0 244 727 244q3 0 52 -11q45 -10 49 -10q103 -3 221 -74q137 -82 137 -188 q0 -88 -141 -211q-30 -24 -182 -141q29 -9 90 -27.5t90 -27.5q123 -45 192 -99q88 -73 88 -174q0 -189 -229 -393q-184 -166 -469 -301q-257 -121 -385 -121q-80 0 -135 64q-55 58 -55 133q0 127 100 239q61 69 207 172h45q-7 -34 -15 -65q-200 -156 -200 -322 q0 -63 139 -63q86 0 289 98q233 114 375 231q186 149 186 263q0 132 -190 196q-125 45 -275 45q-96 0 -221 -49q-122 -49 -148 -49q-23 0 -53 49q-121 -173 -209 -410q-10 -59 -35 -155q-4 -13 -33.5 -47t-33.5 -45h-31q-28 0 -49 43q-14 28 -14 51zM532 901h35 q53 29 138 49q12 6 38 15q30 10 41 10q55 0 244 127q199 134 199 198q-1 42 -39 78q-40 38 -121 66q-119 43 -207 43q-7 0 -158 -268q-154 -274 -170 -318z" />
<glyph unicode="C" horiz-adv-x="1232" d="M70 236q0 404 442 946q129 153 328 295q213 151 317 151q141 0 141 -178q0 -61 -38 -147q-50 -121 -117 -121q-56 0 -56 86q0 12 27 71q29 63 29 70q0 37 -41 37q-140 0 -340 -182q-133 -125 -240 -269q-128 -179 -192 -307q-106 -205 -121 -385v-9q0 -69 45 -159 q61 -119 147 -119q3 0 9.5 -0.5l19.5 -1.5t25 -2l26 -2l19.5 -1.5t9.5 -0.5q22 0 72 12q50 15 73 15q10 0 58 31q47 29 69 38q64 24 197 113q134 88 199 109v-33q-134 -143 -359 -266q-243 -138 -387 -138q-133 0 -248 109q-114 108 -114 238z" />
<glyph unicode="D" horiz-adv-x="1359" d="M37 88q0 11 43 133q38 111 63 195q24 87 86 225q40 97 170 383q17 37 82 127q74 103 88 125q101 -12 101 -94q0 -18 -68 -101q-47 -55 -72 -86q-97 -183 -159 -340q-29 -60 -86 -225q-68 -251 -68 -287q0 -9 4 -16.5t4 -11.5h99q10 3 32.5 8.5t46 11.5t46.5 12 q71 18 98 33q331 168 454 260q263 201 263 426q0 246 -230 424q-106 83 -213 103q-108 24 -119 24l-36 -4q-4 -1 -31.5 -3.5t-46.5 -4.5q-46 -6 -82 -66q-11 -18 -37 -114q-18 -68 -59 -80q-52 24 -52 174q0 3 7 57q6 50 6 68q151 115 352 115q171 0 414 -158 q151 -136 186 -252q63 -117 63 -250q0 -274 -268 -512q-221 -193 -567 -324q-134 -51 -145 -51q-142 -39 -160 -39q-8 0 -45 -4t-45 -4q-52 0 -85.5 37t-33.5 86z" />
<glyph unicode="E" horiz-adv-x="1218" d="M-4 592q0 70 92 141q17 14 53.5 40.5t53.5 39.5q160 244 160 386q0 12 -1 24q101 104 355 168q59 13 176 37t176 36q73 0 151 -4q11 0 21.5 -1t18.5 -1.5t15 -1t11.5 -1t8 -1t4.5 -0.5h1q0 -4 5.5 -22t5.5 -21q-56 -39 -91 -39q-87 0 -335 -59q-266 -64 -314 -115 q-43 -43 -88 -135q-13 -26 -39 -77t-39 -77q0 -4 -2 -10q-4 -4 0 -8q2 -2 13 -2t79 26q69 26 107 33q147 29 360 68q22 -48 19 -62q-21 -21 -88 -49q-62 -26 -88 -26q-8 0 -10 5t-9 5q-77 -27 -231 -80q-163 -58 -225 -96q-42 -22 -89 -158q-45 -128 -45 -225q0 -71 50 -148 q59 -90 137 -90h51q27 0 88 23q58 24 78 24q19 0 149 68q136 69 217 125q92 56 117 71q21 13 45 27.5t33.5 20t11.5 6.5h49q-49 -107 -362 -322q-288 -185 -459 -188h-6q-159 0 -260 149q-86 133 -86 299q0 16 16 72q21 61 23 76q-8 3 -24.5 8t-24.5 8q-35 12 -35 33z" />
<glyph unicode="F" horiz-adv-x="1177" d="M80 1145q0 18 33 65q37 53 53 60q65 34 252 112l147 37q88 24 107 72q20 -4 116 -4q4 0 25 1.5t75 6t105 8.5q204 19 205 19q49 0 166 -15q118 -12 135 -22q19 -9 19 -25q0 -28 -76 -37q-12 -3 -62 -6l-28 -2l-21 -1.5t-10 -0.5h-254q-35 0 -117 -12q-109 -17 -159 -43 q-60 -36 -127 -178q-95 -207 -97 -209q-43 -71 -80 -172q-6 -6 15 -6q9 0 65 26q69 32 82 35q224 46 326 55q25 1 76 4.5t77 4.5q37 -23 37 -41q0 -9 -11 -26.5t-11 -21.5q-360 -61 -477 -104q-272 -100 -330 -291q-9 -22 -28.5 -64t-28.5 -63q-41 -93 -41 -186q0 -2 9 -16 t18 -34t9 -38q0 -33 -10 -56q-7 0 -38.5 -5t-39.5 -5q-39 0 -65 51q-23 44 -23 74q0 9 12.5 26t12.5 21q0 1 -0.5 5.5t-1.5 15t-2 22.5q-3 28 2 41q50 120 123 334q3 7 -4.5 46t-3.5 48q4 14 34 40.5t39 43.5q254 493 254 527v24q-3 6 -24 0l-35 -10q-72 -12 -152 -68 t-80 -82q0 -4 2 -6q37 -55 37 -78q0 -20 -30 -55q-20 10 -107 60q-94 58 -94 98z" />
<glyph unicode="G" horiz-adv-x="1384" d="M76 139q-1 14 -1 28q0 292 290 722q306 453 643 633q1 0 40.5 16.5t77.5 32.5q96 41 101 41q8 1 14.5 -8t13.5 -9q8 0 16.5 5.5t16.5 5.5h7q77 0 124 -125q34 -84 37 -162q0 -31 -33 -121q-40 -112 -80 -133q-45 33 -45 113q0 16 4.5 69t4.5 68q0 19 -4 47q-24 94 -73 94 h-3q-124 -6 -363 -205q-205 -168 -270 -264q-178 -262 -225 -338q-158 -269 -158 -418v-16q5 -78 55 -131q46 -49 106 -49h9l37 2q40 3 162 61q124 59 133 74q48 91 129 236q107 185 270 317q80 65 168 68h6q41 0 60 -35q4 -17 4 -33q0 -44 -29 -84q-136 -192 -295 -342 q-163 -153 -188 -182q-65 -83 -136 -322q-45 -147 -59 -211q-26 -104 -29 -209q-2 -2 -2 -21q0 -51 15 -218q-20 -23 -17 -31q-17 0 -37 -2h-2q-34 0 -61 88q-18 59 -18 92q-1 16 -1 34q0 118 52 321q42 162 96 356q-153 -75 -231 -78h-11q-94 0 -186 47q-129 64 -135 176z M977 408q59 21 168 182l-94 -80z" />
<glyph unicode="H" horiz-adv-x="1753" d="M45 723q0 86 88 86q29 0 82 -18l21 18q15 -18 38 -18q150 0 191 8q48 9 127 258q60 167 141 424q2 5 45 133q12 28 68 28q52 0 61 -45l-264 -720v-41h11q60 0 218 38q180 46 185 46q29 0 90 20q34 10 84 33q41 27 96 164q41 111 84 219q87 196 141 241q164 -24 164 -256 q0 -64 -57 -139q-85 -103 -88 -106q-18 -30 -148 -138q-102 -82 -120 -153q-12 -36 -35 -108.5t-35 -108.5q-53 -171 -62 -293q-2 -20 -2 -38q0 -72 25 -126q35 -74 109 -74q86 0 215 72q10 6 256 166q13 -10 20 -10v-41q2 -15 -39 -54t-121 -98q-145 -110 -237 -151 q-29 -13 -99 -13q-241 0 -241 314q0 196 149 589q-28 -5 -149 -40q-48 -14 -146 -31q-3 -1 -22.5 -5t-62 -13.5t-89.5 -20.5q-16 -3 -45 -8t-45 -8q-66 -18 -84 -66q-162 -463 -239 -723q-17 -20 -91 -59q-30 41 -30 133v272q0 53 -29 221q-10 48 -14 58q-13 32 -43 47 q-30 17 -51 57t-21 78zM266 633q30 -180 60 -301q81 184 131 338q-29 -6 -105 -11q-72 -6 -86 -26zM1427 1094q120 83 158 225q3 11 3 21q0 25 -17 42q-25 -32 -48.5 -73.5t-34 -64.5t-33.5 -80.5t-28 -69.5z" />
<glyph unicode="I" horiz-adv-x="1118" d="M-35 -66q0 62 125 123q108 54 150 54q7 0 8 -5.5t8 -5.5q16 0 51 133q49 174 55 191q0 14 7 49q21 41 59 127q0 11 4 57q270 691 270 732v41l-14 16q-12 1 -23 1q-91 0 -173 -42q-63 -36 -119 -94q-51 -51 -54 -51q-57 0 -57 88q0 245 567 245q11 0 76 -12 q100 -20 103 -20h14q28 0 82 -5q53 -18 96 -79q-21 -58 -55 -58q-2 0 -72 17q-62 18 -72 18q-7 0 -12 -9t-12 -9q-10 0 -31 6q-30 9 -65 12q-193 -430 -267 -623q-119 -310 -200 -671q33 -33 61 -33q-2 0 18.5 3.5t71 11t115.5 16.5q212 30 256 30q24 0 41 -20v-29 q-4 -2 -47 -49q-21 -24 -51 -24q-9 0 -58 -9q-41 -8 -55 -8q-7 0 -10.5 4t-10.5 4q-9 0 -43 -18q-32 -16 -38 -16q-4 0 -19 4t-22 4q-61 0 -242 -45q-167 -38 -207 -56q-21 -10 -61 -45q-39 -39 -50 -39q-98 0 -98 88z" />
<glyph unicode="J" horiz-adv-x="2707" d="M76 -47q21 263 192 510q183 264 396 291l20 -23q-19 -45 -70 -86q-226 -172 -329 -358q-97 -180 -97 -396q0 -244 201 -507q219 -280 498 -318q8 -1 22 -3l33 -5q8 0 47 -9.5t47 -9.5q3 0 14.5 1t33.5 2t46 2t46.5 2t33.5 1.5t13 0.5q10 0 47 16q35 14 47 18 q440 125 706 527q93 140 197 448q18 54 145 475q1 3 121 426q67 232 121 355v26q0 25 -8 25l-7 -4q-8 -4 -18.5 -8t-17.5 -4h-13q-35 0 -149 -5q-53 -3 -100 -4t-77.5 -1t-52 0.5t-34.5 1.5t-14 1q-68 0 -123 2q-82 3 -88 3q-7 0 -119 -11q-102 -10 -148 -20 q-74 -15 -90 -41q0 -50 103 -215q-11 -15 -52 -51q-59 47 -124 127q-97 117 -97 182q0 33 68 86q41 33 83.5 54t64 25.5t34.5 4.5h80h88h141h48q11 0 143 -6t143 -6h47q27 2 52 2q180 0 223 18q120 0 190 70q71 71 137 71q18 0 54 -39q37 -40 37 -55q0 -8 -21 -43 q-28 -47 -31 -55q-44 -10 -110 -45q-88 -70 -144 -213q-81 -204 -172 -533q-118 -408 -163 -542q-101 -303 -226 -523q-188 -311 -499 -497q-290 -174 -551 -174q-12 0 -64 6q-14 1 -29 2t-23 1.5t-11 0.5q-36 0 -160 37q-97 30 -156 53q-222 90 -399 338q-172 239 -172 442 q0 22 4 58q-10 18 -10 59q0 17 2 39z" />
<glyph unicode="K" horiz-adv-x="1396" d="M47 109q0 62 72 221q43 88 84 174q67 164 235 579q140 341 185 414q56 170 104 170q24 0 55 -28.5t31 -51.5q0 -22 -119 -248q-132 -249 -162 -321v-45q76 115 238 252q66 53 250 198q45 36 115 84q79 54 88 54q35 0 61.5 -22.5t26.5 -49.5q0 -7 -19 -94 q-256 -100 -489 -469q-223 -351 -223 -621q0 -202 96 -321q102 -123 278 -123q114 0 424 151q13 -10 21 -10l-2 -33q-132 -112 -232 -166q-131 -67 -268 -67q-224 0 -344 188q-96 152 -96 346v10q0 129 71 347q61 186 115 280q5 5 -4 13q-77 -74 -162 -205l-135 -221 q-11 -22 -100 -265q-77 -209 -125 -209q-70 0 -70 89z" />
<glyph unicode="L" horiz-adv-x="1222" d="M68 -57q40 37 108 243q37 112 84 269q12 37 33 104.5t38.5 123t33.5 105.5q117 356 229 590q76 156 140 234q63 76 115 76h3q75 -3 125 -80q39 -58 39 -122v-9q0 -14 -17 -80q-19 -68 -36 -88q-16 -6 -91 -41q-55 23 -55 54q0 8 21 73q21 63 28 78l-14 14 q-43 -30 -94 -101q-20 -30 -92 -155q-26 -48 -211 -580q-186 -532 -189 -583l-2 -41q84 21 283 51l627 135q10 0 10 -20q0 -63 -238 -134q-115 -28 -327.5 -80t-288.5 -71q-9 -3 -76 -49q-64 -47 -82 -47h-2q-16 0 -29 6.5t-25 24.5t-17.5 28t-16.5 38t-14 34z" />
<glyph unicode="M" horiz-adv-x="1660" d="M96 35q0 13 6 29.5t18 37t22.5 35.5t28.5 40.5t26 37.5q91 135 163 277q116 199 275 507q18 46 55 139.5t55 139.5q73 177 158 256q34 6 58 6q75 0 75 -72q0 -24 -6 -51q-164 -250 -178 -272q-166 -292 -166 -606v-119q3 -70 33 -119q124 76 278 313q253 379 367 545 q36 44 123 176q29 45 76 166q53 140 77 189q67 132 101 176q76 98 164 98q69 0 69 -90q0 -15 -157 -250q-166 -247 -177 -283q-48 -161 -221 -837q-82 -331 -96 -496q-11 -137 -16 -155q-18 -66 -80 -66q-64 0 -64 78q0 137 148 694q57 195 149 531q-31 -47 -99.5 -149.5 t-131.5 -197l-123 -184.5q-278 -444 -387 -444q-87 0 -152 123q-21 41 -24 139q-2 55 -2 168q-73 -108 -183 -324q-112 -222 -153 -274q-13 8 -58 8q-30 0 -51 80z" />
<glyph unicode="N" horiz-adv-x="1380" d="M68 229q0 31 245 496q259 494 285 664q2 4 9.5 18.5t11 20.5t11 18t13.5 17.5t15 12.5t19 10t21 3q49 0 74 -66q-14 -356 -14 -432q0 -173 14 -291q23 -209 37 -282q38 -177 127 -334q31 35 70 152q26 82 57 174q178 502 244 692q240 631 342 631q49 0 49 -64 q0 -36 -119 -252q-134 -242 -186 -420q-19 -71 -121 -354q-21 -72 -65 -218.5t-66 -219.5q-123 -383 -180 -383q-99 0 -207 336q-79 251 -99 413q-26 204 -26 369q0 55 2 78q-19 16 -23 16q-6 -11 -225 -422q-124 -231 -184 -422l-25 -18q-18 -12 -35 -12q-19 0 -45 25 t-26 44z" />
<glyph unicode="O" horiz-adv-x="1368" d="M106 350q0 217 187 545q181 318 414 545q251 248 419 248q74 0 162 -240q78 -206 78 -318v-8q-9 -263 -139 -551q-155 -351 -414 -510q-73 -47 -147 -96q-79 -43 -177 -43q-174 0 -290 152q-93 131 -93 276zM246 403q3 -109 61 -210q68 -115 160 -115h92q85 0 270 164 q166 144 226 241q188 317 188 604q0 138 -47 265q-30 17 -74 69q-43 49 -55 49q-158 0 -362 -210q-189 -195 -322 -447q-137 -259 -137 -404v-6z" />
<glyph unicode="P" horiz-adv-x="1529" d="M55 -57q0 15 33 88q38 85 49 123q69 208 309 737q266 589 304 698q10 27 77 47q73 25 115 25q51 0 158 -35q87 -25 139 -55q309 -172 309 -508q0 -231 -211 -455q-177 -189 -463 -327q-243 -117 -323 -117q-89 0 -121 14q-57 20 -57 78q0 93 153 231q138 126 215 144 q21 3 78 35q46 22 86 22q-9 -13 8 -33q-271 -120 -372 -344q14 -14 32 -14q31 0 250 86q185 71 381 258q235 221 238 410v13q0 197 -182 327q-155 110 -314 110q-48 0 -125 -108q-45 -66 -92 -168q-118 -282 -446 -1047q-39 -118 -52 -164q-46 -137 -86 -137q-25 0 -57.5 23 t-32.5 43z" />
<glyph unicode="Q" horiz-adv-x="1464" d="M96 354q0 109 56 277q52 151 124 274q53 89 168 238q154 201 279 317q89 83 192 127q18 7 55 22.5t56 22.5q189 148 199 148q110 0 198 -172q73 -146 76 -246v-26q0 -335 -227 -740q-142 -254 -322 -414q-72 -63 -336 -233q-17 -13 -17 -45q0 -9 1 -19q10 -78 23 -121 q8 -25 23.5 -70t21.5 -63q9 -36 53 -114q37 -70 37 -80q0 -14 -13 -37q-18 -30 -18 -33q-38 20 -96 103q-76 113 -123 274q-14 51 -23 87t-12.5 53.5t-1.5 17.5q-182 0 -285 151q-88 128 -88 301zM217 397q0 -85 43 -192q59 -152 166 -152q23 0 23 13q-11 101 -11 167 q0 565 363 1119q-175 -131 -365 -416q-219 -331 -219 -539zM561 258q0 -118 12 -176q317 114 572 522q241 381 241 703q0 63 -28 155q-40 131 -115 131q-12 0 -41 -16q-10 -5 -37 -23q37 -49 37 -137q0 -23 -12 -57q-18 -53 -57 -53q-24 0 -48 67q-10 34 -20 50.5t-18 13.5 q-486 -519 -486 -1180z" />
<glyph unicode="R" horiz-adv-x="1536" d="M80 94q0 -1 9.5 26.5t31.5 91t49 144.5q113 337 272 672q22 47 84 143q69 106 99 119q4 -4 10 -4q3 0 13.5 3t13.5 3q21 0 24 -55q-28 -117 -133 -303q-124 -219 -168 -352h11q51 0 153 24q181 45 481 205q408 217 408 410q0 137 -299 211q-193 44 -345 44q-26 0 -51 -1 q-45 -3 -145 -29q-103 -24 -131 -39q-23 -12 -74 -41q-57 -39 -63 -86q0 -11 10.5 -25.5t11.5 -17.5q5 -11 11 -38.5t6 -39.5q0 -7 -6.5 -27.5t-6.5 -27.5h-80q-7 8 -27.5 31t-29 33t-24 30.5t-22.5 33t-13 28.5t-6 30q0 174 284 262q204 62 436 62q169 0 404 -84 q289 -111 289 -268q0 -260 -387 -512q-205 -132 -609 -304q49 -44 263 -178q239 -148 350 -227q186 -135 254 -234q-21 -43 -47 -43q-19 0 -95 48l-98 61q-431 242 -860 573q-42 -85 -62 -219q-25 -161 -32 -180q-15 -49 -58 -49q-15 0 -61 37q-45 36 -45 59z" />
<glyph unicode="S" horiz-adv-x="1263" d="M70 172q0 94 80 262q78 162 112 170q37 -15 37 -49l-7 -11q-8 -19 -44 -102q-49 -122 -49 -204q0 -124 120 -191q99 -57 236 -57q129 0 293 123q170 129 170 256q0 103 -80 274q-40 78 -131 217q-95 145 -129 217q-60 129 -60 238q0 112 127 227q125 113 232 113 q155 0 219 -101q55 -82 55 -266q0 -15 -34 -67t-48 -52q-11 0 -23 5.5t-13 5.5q-3 32 -10.5 93t-10.5 89q-18 118 -100 121h-10q-122 0 -185 -72q-47 -56 -47 -139q0 -41 10 -64q34 -60 101.5 -180t101.5 -180q168 -302 168 -408q0 -260 -231 -442q-202 -158 -414 -158 q-3 0 -68 10q-15 2 -32.5 5t-26 4.5t-12.5 1.5q-71 0 -181 110q-116 116 -116 201z" />
<glyph unicode="T" horiz-adv-x="1302" d="M170 1485q72 32 225 41q80 2 230 10q83 3 206 23q10 3 62 30q51 23 59 23q1 0 4.5 -2.5t12.5 -9t18 -13.5q33 -23 68 -26q27 0 139 8q115 8 141 8q99 0 148 2q143 -3 143 -33q-3 -98 -240 -98h-14q-83 0 -201 -14q-30 -3 -182 -23q-19 -3 -90 -111q-97 -151 -203 -450 q-25 -79 -77.5 -236.5t-77.5 -236.5q-6 -123 -15 -246q-15 -190 -88 -190q-54 3 -80 45q-22 36 -22 69q5 43 39 183q46 190 82 290q149 393 309 836q0 29 -16 35q-14 0 -37 2q-87 0 -160 -17q-93 -24 -133 -26q-5 -5 -8 -27q55 -155 55 -188q0 -11 -6 -26t-6 -17l-35 2 q-54 98 -137 166q-10 5 -39 21t-45 24q-62 39 -62 88q0 70 33 84z" />
<glyph unicode="U" horiz-adv-x="1550" d="M74 197q0 148 186 569q193 442 291 448q19 1 32.5 -14t22.5 -47q12 -41 12 -82q0 -14 -65 -88q-82 -92 -94 -113q-97 -159 -160 -317q-84 -212 -84 -342q0 -22 33 -72q190 84 395 307q103 114 315 402q69 174 166 416q173 397 277 397q39 0 63 -47q21 -38 21 -64 q0 -15 -152 -276q-162 -282 -184 -328q-63 -147 -98 -354q-25 -162 -25 -250q0 -305 207 -305q57 0 170 61q80 44 115 70l22 -23q-37 -79 -145 -161q-110 -84 -176 -90q-10 -1 -20 -1q-140 0 -216 119q-80 121 -80 301q0 1 4 123q3 61 3 92q0 15 -1 23q-45 -68 -276 -299 q-289 -289 -391 -289q-79 0 -129 96q-39 68 -39 138z" />
<glyph unicode="V" horiz-adv-x="1181" d="M219 223q0 213 14 314q13 95 40.5 287.5t41.5 287.5q29 208 29 311q0 57 -2 82q5 5 18 16.5t19 17t17 15t18 14t16.5 10t18 7.5t16.5 2q37 0 55 -61q12 -41 12 -72q0 -13 -26 -108q-30 -113 -39 -154q-15 -73 -42.5 -207.5t-37.5 -183.5q-49 -246 -49 -389 q0 -172 55 -273q161 136 535 787q304 530 475 833q14 -8 29.5 -31t15.5 -40q-12 -160 -391 -795q-326 -534 -422 -690q-43 -74 -96 -146q-89 -123 -138 -123h-43q-43 0 -96 140q-43 119 -43 149z" />
<glyph unicode="W" horiz-adv-x="1642" d="M82 168q0 10 35 123q36 116 55 158l322 741q25 98 94 270q7 17 33.5 38.5t40.5 21.5q29 0 57.5 -28.5t28.5 -53.5q0 -63 -48 -154q-68 -123 -114 -215q-32 -79 -187 -422q3 -9 15 -24q85 137 243 352q231 313 304 313q30 0 51 -41q16 -32 16 -51q0 -13 -45 -104 q-55 -114 -68 -158q-45 -132 -86 -324q-53 -239 -53 -364q0 -184 125 -199h5q45 0 128 98q16 21 49 63t50 64q134 172 258 437q101 224 194 442q73 161 96 297q1 23 3.5 64.5t3.5 60.5q9 81 43 96q15 6 36 6t47.5 -23.5t25.5 -43.5q-21 -278 -279 -828q-206 -444 -316 -579 q-123 -155 -172 -219q-110 -118 -199 -118q-8 0 -16 1q-92 9 -156 108q-55 81 -61 170q-2 27 -2 59q0 133 31 339q38 237 71 323q-21 -26 -288 -432q-218 -332 -265 -332q-26 0 -67 21q-39 20 -39 47z" />
<glyph unicode="X" horiz-adv-x="1634" d="M113 -74q0 149 166 373q98 133 309 356q166 175 166 193q0 7 -23 55q-27 52 -37 76q-53 157 -53 240q0 43 41 81q36 31 66 31q56 0 90 -155q6 -28 20.5 -99.5t22.5 -111.5q111 117 338 309q221 190 292 266q72 35 107 35q63 0 72 -127v-66q-3 -16 -74 -57q-8 -5 -49 -2 q-42 3 -51 -4q-97 -59 -332 -260q-258 -218 -258 -262q0 -49 88 -303q101 -293 172 -334q51 6 125 162q12 26 33.5 75.5t33.5 75.5q55 125 66 125q43 0 43 -61q0 -158 -88 -344q-103 -216 -234 -216q-110 0 -233 299q-43 100 -133 394q-129 -123 -350 -355 q-95 -113 -173 -243q-16 -63 -67 -162q-27 -35 -45 -35t-34.5 16.5t-16.5 34.5z" />
<glyph unicode="Y" horiz-adv-x="2211" d="M49 -182q0 96 51 248q58 179 125 210q-4 -14 -15.5 -59.5t-16.5 -64.5t-14 -58.5t-12.5 -64.5t-7 -58.5t-3.5 -62.5q0 -276 194 -508q218 -262 555 -262h76q302 0 508 338q145 242 246 659q50 241 96 451q-61 -47 -182 -168q-146 -142 -203 -187q-117 -91 -186 -94 q-7 -1 -13 -1q-145 0 -145 257q0 72 12 152q16 86 78 231q86 204 100 246q35 96 43 121q46 106 92 106q36 0 60 -47q18 -37 18 -65q0 -2 -71 -144q-82 -169 -131 -293q-70 -183 -70 -288q0 -27 2 -39q18 -16 30 -27.5t17 -16.5t4 -5q77 0 281 198q203 213 237 248 q92 92 168 264q129 287 187 389q31 58 100 115q88 76 154 76q61 0 61 -113q0 -76 -109 -233q-74 -104 -206 -264q-113 -143 -123 -173q-59 -253 -228 -903q-165 -566 -434 -778q-46 -36 -129 -82q-95 -53 -110 -53q-17 0 -64 -12q-47 -15 -70 -15q-204 0 -387 70 q-199 74 -323 223q-242 291 -242 537z" />
<glyph unicode="Z" horiz-adv-x="1468" d="M119 29q3 21 43 61q307 301 526 584q202 263 438 639q-166 -15 -305 -35l-172 -31q-108 -22 -170 -65q1 5 1 -4l1 -86q0 -56 -61 -56h-6q-15 4 -84 70q-72 69 -86 94q-11 26 -11 43q3 22 41 47q41 27 56 21l18 18q190 27 776 121q49 8 199 72q139 59 145 59q80 -3 80 -45 q0 -13 -2 -23v-22q0 -28 8 -47q-71 -48 -163 -113q-111 -80 -172 -160q-158 -215 -234 -329q-69 -105 -123 -172q-154 -178 -403 -498q27 -2 95 -7t143.5 -10.5t152.5 -9.5q157 -10 301 -34q206 -36 264 -72l-2 -49q-40 -19 -59 -19q-86 9 -256 27q-181 20 -606 20 q-74 0 -166 -57q-95 -59 -99 -59q-38 1 -73 42.5t-35 84.5z" />
<glyph unicode="a" horiz-adv-x="1112" d="M80 154q0 126 205 350q202 221 320 221h3q11 0 21 -4t15.5 -7t13.5 -14.5t9.5 -14t8.5 -18.5l8 -16q24 49 31 64q27 55 55 55q29 0 68 -39q5 -8 5 -22q0 -26 -16 -74q-40 -56 -63 -111q-27 -71 -47 -159q-23 -100 -23 -113q0 -69 31 -129q40 -76 109 -76q58 0 153 62 q124 79 162 104h27q-12 -81 -158 -188q-144 -105 -221 -105q-7 0 -19.5 3t-19.5 3q-39 0 -90 45q-47 41 -58 66q-41 84 -41 164q0 30 6 57l-184 -166q-116 -90 -213 -90q-33 0 -67 61q-31 54 -31 91zM215 164q2 0 12.5 -9.5t18.5 -9.5q31 0 176 127q126 114 147 146 q34 52 49 110q-4 0 -29 10.5t-32 10.5q-33 0 -102 -60q-6 -6 -36 -32.5t-46 -42.5q-45 -40 -101 -121q-47 -73 -57 -129z" />
<glyph unicode="b" horiz-adv-x="931" d="M84 37q-1 9 -1 18q0 82 73 197q78 123 182 174q26 3 29 -20v-7q0 -31 -23 -55q-132 -150 -135 -289q14 -20 39 -20q1 0 33 8q51 3 127 35q107 52 208 180q100 127 100 229q0 8 -1 17q-5 84 -53 132q-39 39 -94 40q-11 0 -23 -2q-66 -9 -174 -135q-109 -127 -123 -127 q-28 -4 -52 26q-26 32 -26 59q0 25 229 502q50 131 125 306q9 41 39 125q1 0 27.5 10.5t46.5 17.5q62 -30 65 -78v-11q0 -42 -20 -77q-121 -201 -262 -504q53 15 172 27q8 1 15 1q92 0 157 -105q64 -98 67 -205q0 -6 1 -12q0 -184 -175 -373q-181 -196 -356 -211l-80 -8h-5 q-39 0 -83 47q-46 49 -49 88z" />
<glyph unicode="c" horiz-adv-x="847" d="M100 190q0 161 133 353q127 182 271 256q29 16 43 49q56 20 82 20q59 0 102 -98q33 -70 33 -121q0 -1 -2.5 -9t-9 -28t-13.5 -41q-26 -7 -47 -7q-37 0 -59 22l-10 45q-9 42 -27 51q-101 -6 -238 -186q-137 -177 -137 -308v-6q2 -63 45 -106t109 -43q80 0 131 26 q28 19 78 43q23 5 34 8.5t15 5.5t13 8t18 11q3 0 9.5 -0.5t9 -1t6.5 -2t5.5 -4.5t1.5 -8q0 -7 -30 -47q-32 -43 -64 -68q-143 -94 -231 -94q-130 0 -200.5 73t-70.5 207z" />
<glyph unicode="d" horiz-adv-x="1243" d="M74 70v12q0 140 200 403q217 284 379 293q33 0 37 -4q10 -5 47 -53q23 45 150 293q128 240 223 305q7 -4 24 -12t23 -11q0 -5 12.5 -28.5t12.5 -28.5q0 -6 -2 -8q-72 -89 -219 -389q-54 -105 -109 -283q-57 -186 -57 -287v-10q3 -63 20 -117q30 -94 107 -100q5 0 10 -1 q67 0 166 73l166 123q8 8 28 -9q2 -6 2 -14q0 -20 -61 -108q-24 -37 -107 -103q-83 -62 -149 -84q-10 -4 -28 -4q-23 0 -58 6q-52 8 -86 27q-131 82 -131 321q0 79 14 136q-52 -107 -186 -256q-175 -190 -299 -199q-26 0 -78 49q-47 50 -51 68zM219 100q64 9 154 99 q77 77 121 145q17 22 49 63.5t35 45.5q71 99 71 129v2q-3 15 -12 24q-6 1 -11 1q-33 0 -75 -29q-17 -13 -72 -60q-50 -35 -155 -180q-115 -153 -115 -216q0 -14 10 -24z" />
<glyph unicode="e" horiz-adv-x="862" d="M90 190v5q0 163 180 370q184 211 351 211q45 0 90 -45t45 -92q0 -115 -195 -283q-194 -167 -350 -176q6 -67 68 -114q49 -37 100 -37q59 0 178 49q137 58 137 59q29 6 51 -16q-36 -52 -178 -127q-145 -80 -213 -80q-118 0 -196 90q-65 80 -68 186zM254 332q62 0 117 30 q32 18 110 76q86 65 137 170q-17 17 -28 17q-89 0 -205 -113q-96 -96 -131 -180z" />
<glyph unicode="f" horiz-adv-x="911" d="M-98 -569q0 -2 16.5 40.5t54.5 142t86 230.5q160 424 160 504q0 11 -55 66q-37 46 -37 75q0 46 74 76q10 3 29.5 9.5t35.5 12t31 9.5q154 371 244 600q43 115 108 215q21 30 84 80q66 51 107 51q49 0 86 -76q30 -57 30 -100v-8q0 -68 -34 -146q-41 -90 -82 -90 q-7 0 -47 19q3 18 5.5 37t4.5 31.5t3.5 25t3 19.5t2 12.5t1 7t0.5 0.5q0 26 -6.5 38.5t-20.5 10.5q-24 -3 -106 -143q-77 -133 -102 -197q-66 -152 -132 -348q64 4 230 22q38 5 71.5 10t47 7t14.5 2q5 0 51 -6q62 -4 70 -4l2 -4q3 -4 5.5 -11t2.5 -14q0 -30 -49 -57 q-245 -57 -285 -60q-111 -13 -211 -45q-67 -178 -178 -543q-112 -373 -176 -548q-15 -37 -47 -37q-45 0 -72 37q-20 26 -20 47z" />
<glyph unicode="g" horiz-adv-x="1011" d="M-582 -616v15q0 103 39 206q46 134 127 178l2 -43q-1 1 -4.5 -8.5t-10 -30t-15.5 -51.5q-31 -105 -31 -162q0 -23 2 -33q30 -169 100 -227q77 -68 287 -74q115 0 283 119q188 133 264 303q84 182 131 352q10 42 76 328q-278 -248 -414 -254h-15q-160 0 -163 121v7 q0 106 86 243q68 105 264 252q188 141 270 153q8 2 25 2q15 0 31 -5.5t26.5 -11t12.5 -5.5q5 0 28 12t31 12h3q55 0 58 -106q1 -14 5 -30.5t4 -18.5q0 -19 -46 -101q-15 -28 -28.5 -61t-21.5 -57t-18.5 -65.5t-14 -58t-13.5 -65.5t-12 -59q-114 -529 -277 -778 q-244 -364 -698 -379h-5q-122 0 -245 135q-120 132 -123 246zM230.5 148q15.5 -13 29.5 -11q97 3 277 160q178 155 190 266l-53 25q-88 -3 -271 -158q-188 -161 -188 -253q0 -16 15.5 -29z" />
<glyph unicode="h" horiz-adv-x="1001" d="M90 178q0 3 84 228q37 97 80 214.5t53 143.5q51 145 144 416q18 98 26 133q21 80 101 80q49 0 49 -76q0 -15 -140 -402q-145 -397 -165 -481q27 32 81 95.5t82 95.5q171 186 228 186q63 0 63 -94q0 -18 -76 -256q-80 -256 -82 -301q-1 -7 -1 -15q0 -45 22 -79 q25 -40 61 -39q60 0 142 61q86 62 104 62q34 0 25 -33q-15 -51 -121 -135q-107 -84 -141 -84q-211 0 -211 272q0 51 39 178q41 134 53 201q-54 -43 -228 -254q-147 -184 -169 -184q-5 0 -18 -4.5t-21 -4.5q-64 0 -64 76z" />
<glyph unicode="i" horiz-adv-x="690" d="M96 178q0 76 92 289q95 221 140 221q63 0 98 -78q-10 -24 -121 -223q-72 -132 -72 -215q0 -20 3 -35q16 -28 71 -28q78 0 209 104q161 124 182 131l3 -4q3 -5 5.5 -12t2.5 -13q0 -57 -154 -196q-151 -139 -195 -139q-6 0 -47 -3q-10 -1 -21 -2t-17 -1.5t-9 -0.5 q-64 0 -116 70q-54 73 -54 135zM430 1042q0 11 4 19q13 7 40 22.5t40 22.5q49 25 105 41.5t82 20t34 3.5q16 0 37 -41q-36 -46 -131 -116q-100 -74 -123 -74q-31 0 -59.5 35t-28.5 67z" />
<glyph unicode="j" horiz-adv-x="473" d="M-1249 -768q8 63 8 86q6 127 8 131q4 24 51 141q41 52 72 95q-35 -154 -39 -172q-18 -102 -18 -175v-10q0 -179 102 -356q131 -223 340 -223q174 0 324 159q143 151 237 308q75 126 137 346q53 181 109 499q60 309 113 469q55 172 153 172q27 0 44.5 -23.5t17.5 -49.5 q0 -72 -39 -140q-26 -19 -64 -69q-41 -99 -80 -281q-53 -264 -75 -338q-39 -136 -148 -477q-69 -216 -262 -450q-211 -254 -377 -254q-105 0 -153 10q-52 9 -158 61q-100 46 -193 195q-81 132 -102 248q-9 55 -9 82q0 10 1 16zM416 1085q0 54 104 103q87 43 148 43 q7 0 27 -4t28 -4q0 -1 2 -6.5t4 -14t2 -14.5q0 -57 -35 -72q-65 -27 -88 -53q-1 -2 -14 -16.5t-19 -22.5q-28 -31 -38 -31q-24 0 -74 35q-47 38 -47 57z" />
<glyph unicode="k" horiz-adv-x="952" d="M94 250q8 93 164 502q123 323 176 436q7 21 21.5 65.5t21.5 65.5q26 63 54 93q25 27 52 26h5q54 -5 54 -74q0 -10 -1 -21q-101 -213 -172 -380q-172 -391 -178 -467q-3 -20 0 -23q36 41 108.5 123t108.5 123q208 221 275 221h3q14 -5 33 -29q23 -30 23 -34 q-3 -7 -12.5 -30t-16.5 -40q-31 -31 -65 -53q-17 -12 -34.5 -24.5t-27 -18.5t-12.5 -9q-103 -83 -189 -210q-103 -150 -118 -285q-1 -15 -1 -29q0 -86 48 -137q44 -50 116 -59q5 0 11 -1q105 0 342 158q5 -1 15 -2t15 -2q5 0 5 -29q-208 -247 -384 -247q-14 0 -28 2 q-164 18 -246 180q-9 15 -12 84q-3 55 -10 59q-2 0 -45 -16q-38 -15 -48 -12q-27 3 -41 45q-13 36 -10 49z" />
<glyph unicode="l" horiz-adv-x="581" d="M119 117q3 105 39 231q73 250 204 615q86 236 119 438q3 21 41 59q40 37 53 37q28 -3 62 -43l22 -70q-72 -169 -221 -589q-184 -505 -190 -656v-9q0 -38 22 -91q25 -53 25 -58q0 -37 -35 -34h-37q-48 0 -82 82q-22 54 -22 82v6z" />
<glyph unicode="m" horiz-adv-x="1214" d="M51 59q14 37 27.5 76.5t28.5 83t22 64.5q78 246 84 311q5 35 28.5 65.5t53.5 30.5q70 0 70 -61q0 -72 -46 -209q5 -15 11 -21q8 8 149 174q77 95 142 95q24 0 40.5 -24t16.5 -50q0 8 -4 -13l-45 -274q24 27 168 215q89 117 135 144l16 16q66 -45 66 -53q0 -59 -53 -183 q-54 -127 -54 -229q0 -133 119 -133q25 0 176 92q7 -7 12.5 -11.5t8 -6t2.5 -0.5q-1 -1 -2 -4t-2 -4q-42 -56 -109 -111q-63 -51 -94 -51h-53q-80 6 -136 80q-53 74 -53 157q0 25 2 37l-108 -123q-93 -106 -138 -106q-75 0 -75 114q0 73 30 150q31 79 31 84v29h-2 q-32 0 -184 -213q-157 -226 -211 -226q-32 0 -53 35q-17 31 -17 53z" />
<glyph unicode="n" horiz-adv-x="890" d="M78 111q0 16 49 213q62 236 86 315q6 19 34 34t50 15q10 0 31 -12q28 -19 30 -19q1 -6 1 -13q0 -43 -31 -128q-41 -109 -41 -131q0 -10 6 -16q51 48 129 147q79 103 127 148q69 63 133 63q43 0 43 -74q0 -71 -68 -245q-65 -174 -65 -234q0 -108 82 -108q33 0 198 98 q2 -1 7.5 -4.5t7.5 -5t5 -6.5t-1 -9q-25 -54 -113 -129q-82 -67 -131 -67q-162 0 -180 219v9q0 47 27 153q9 37 16.5 65t10.5 39t3 10q-115 -124 -153 -168q-105 -122 -148 -204q-7 0 -35.5 -12.5t-35.5 -12.5q-22 0 -50 31q-24 30 -24 39z" />
<glyph unicode="o" horiz-adv-x="796" d="M88 223q0 90 92 250q79 133 150 207q47 50 125 90q65 33 90 33h6q73 0 109 -51q38 -53 38 -162q0 -140 -51 -299q-38 -115 -145 -234q-126 -135 -228 -135q-99 0 -149 109q-37 78 -37 192zM217 205q0 -48 19 -94q21 -53 65 -56h3q52 0 130 105q57 74 82 139 q70 155 70 279q0 62 -21 65q-78 -78 -88 -78t-10 8q0 9 -12 9q-77 0 -162 -168q-73 -143 -76 -209z" />
<glyph unicode="p" horiz-adv-x="960" d="M-121 -553v6q0 62 60 230q20 54 57.5 161t56.5 162l129 412q88 271 131 274l35 4q46 0 49 -86q43 85 129.5 139t180.5 56h5q67 0 119 -82q44 -71 50 -164v-10q0 -151 -172 -352q-178 -208 -303 -217h-12q-91 0 -97 88v6q0 26 22 69q26 44 64 47q23 3 33 -26q0 -25 2 -35 q6 -6 16 -6q89 9 209 184q107 162 107 254v10q-4 53 -35 83q-29 28 -70 28h-6q-130 -9 -270 -256q-102 -176 -203 -467q-76 -224 -84 -291q-5 -35 -35 -135q-11 -35 -20.5 -66t-13.5 -46t-5 -17q-20 -12 -49 -22h-2q-27 0 -78 65z" />
<glyph unicode="q" horiz-adv-x="897" d="M53 141q0 144 246 396q245 254 381 254q45 0 98 -84q49 -76 49 -115q0 -35 -51 -131q-28 -46 -76 -137q-66 -124 -151 -355q-82 -220 -133 -364l-6 -21q1 0 143 115q113 90 188 108q3 -2 23 -12q4 -4 -6 -33q-54 -54 -160 -163q-158 -162 -205 -263q-40 -110 -63 -165 q-65 -152 -94 -152q-49 0 -70 82q-10 52 -10 92q0 56 39 115q49 75 61 123q109 311 227 686q-172 -146 -321 -146q-36 0 -74 68q-35 62 -35 102zM168 147l4 -12q3 -12 9 -22.5t12 -10.5q91 0 161 58q129 102 193 184q62 80 117 217q10 45 10 55q0 9 -4 13q-3 3 -13 0 q-10 -2 -20 -2q-175 -79 -283 -193q-105 -108 -186 -287z" />
<glyph unicode="r" horiz-adv-x="790" d="M94 47q0 11 27 113q53 160 102 323q23 102 37 138q20 58 64 96q24 0 36 -31q15 -43 21 -49q62 55 121 106q80 62 147 62q46 0 66 -45q22 -58 23 -197q0 -43 -21 -90q-24 -55 -58 -70q-9 10 -15.5 19.5t-9 21t-3.5 17t-1.5 19.5t-0.5 18q-4 14 4 55.5t8 44.5q0 45 -39 45 q-63 0 -172 -158t-164 -331q-3 -19 -10 -57t-10 -58q-15 -72 -51 -100q-31 15 -56 38q-45 39 -45 70z" />
<glyph unicode="s" horiz-adv-x="759" d="M59 10q0 29 9 56q28 95 77 133q52 32 66 39q31 0 49 -2q-7 -13 -20.5 -41t-20.5 -41q-35 -72 -35 -109q0 -47 60 -47q58 0 112 72q58 78 58 152q0 24 -37 198q-11 55 -22 108t-15 72.5t-4 20.5q-2 12 -2 38q0 107 57 187q58 84 136 84h5q84 0 134 -86q36 -58 36 -120 q0 -13 -2 -26q0 -7 -13.5 -30t-14.5 -31q-4 1 -47 29q-16 10 -41 82q-8 13 -33 16q-6 1 -12 1q-50 0 -66 -48l-10 -84q-3 -19 35 -213q30 -154 30 -241q0 -21 -2 -38q-9 -98 -80 -178q-88 -98 -219 -98q-75 0 -121.5 39t-46.5 106z" />
<glyph unicode="t" horiz-adv-x="749" d="M119 84q0 12 43 145q45 134 45 150q0 8 -15 33.5t-16 29.5q-18 62 -18 107q0 15 32 53q33 39 46 39q8 0 19.5 2t18.5 2q21 0 82 168q11 33 33 93.5t29 80.5q52 118 145 385q16 24 38 36.5t24 16.5h37q0 -4 16 -51t16 -71q0 -57 -110 -283q-127 -267 -146 -338l13 -14 q73 18 157 24l221 19q-4 -5 2.5 -17.5t6.5 -13.5q0 -13 -25 -35q-201 -41 -297 -80q-69 -28 -149 -80q2 -21 -21 -92q-22 -64 -22 -90q0 -22 8 -78q0 -27 -35 -155q-41 -148 -76 -148q-36 0 -74 72q-28 61 -28 90z" />
<glyph unicode="u" horiz-adv-x="985" d="M70 158q0 72 110 319q114 258 156 258q24 0 45 -49q25 -48 25 -72l-2 -4q-3 -5 -9 -15.5t-14 -25.5t-19.5 -36t-25.5 -46.5t-31 -58.5q-103 -199 -112 -297q-3 -7 4 -12q95 36 280 270q51 59 107 135q24 44 51 84q41 53 80 62q1 -1 43 -54q20 -20 20 -45q0 1 -1 1 q-5 0 -64 -140q-70 -162 -70 -246q0 -26 21 -77q27 -64 75 -64q55 0 146 49q105 55 141 64l6 -33q-37 -56 -110 -115q-104 -78 -183 -78q-92 0 -157 80q-64 82 -64 183q0 29 6 53q-27 -27 -159 -170q-101 -96 -156 -96q-139 0 -139 176z" />
<glyph unicode="v" horiz-adv-x="866" d="M115 420q0 170 39 268q6 13 29.5 28t37.5 15q6 0 21 -9t31 -21t18 -13l12 -55q0 -1 -31 -55q-47 -80 -47 -177q0 -90 41 -186q51 96 84 164q90 164 180 278q121 148 207 148q48 0 113 -19l2 -4q3 -3 5.5 -9t2.5 -13q0 -33 -41 -39q-49 -8 -135 -82q-91 -79 -158 -201 q-87 -158 -145 -375q-37 -143 -74 -143q-10 0 -84 45q-26 61 -69 228q-39 150 -39 227z" />
<glyph unicode="w" horiz-adv-x="1067" d="M129 10v80q0 114 8 281q3 93 3 188q0 57 -1 115q0 64 12 82t60 18q25 0 78 -90q0 -12 -21.5 -77t-21.5 -103v-2q0 -1 -0.5 -5t-1 -10t-1 -14.5t-1.5 -19t-2 -23.5q-7 -86 -7 -113q0 -38 7 -45q40 74 122 224q102 182 148 182q66 0 96 -139q3 -23 10.5 -73t10.5 -77 q14 -43 28 -92q56 151 101 260q76 141 256 141q36 0 82 -30q0 -43 -52 -58q-84 -28 -100 -37q-87 -57 -143 -266q-13 -59 -38.5 -175t-39.5 -175q-10 -10 -37 -10q-51 0 -78 76q-13 55 -26 102q-14 78 -72 340q-46 -46 -64 -86q-20 -39 -118 -275q-82 -196 -86 -196 q-7 0 -39 29q-29 26 -41 26q-25 0 -31 47z" />
<glyph unicode="x" horiz-adv-x="833" d="M37 -2q0 57 96 209q94 143 94 145q-65 216 -65 293q0 64 76 64q30 0 51 -95q6 -26 18.5 -77.5t18.5 -77.5q285 323 430 323q14 0 41 -37q27 -35 20 -45q-4 -7 -223 -182q-203 -162 -203 -224q0 -48 53 -140q62 -109 117 -109q42 0 76 61q36 62 61 62h2l7 -98v-7 q0 -48 -39 -96q-40 -55 -90 -55q-109 0 -197 117q-64 83 -90 174q-49 -21 -189 -223q-1 0 -4 -1t-9.5 -2t-14.5 -2q-21 0 -25 2q-12 6 -12 21z" />
<glyph unicode="y" horiz-adv-x="1021" d="M-743 -584q0 309 174 455q37 37 45 41q-2 -1 2 -2h33q-21 -94 -103 -182v-11q0 -37 -16 -114q-19 -97 -19 -133q0 -183 72 -299q88 -144 285 -144q360 0 610 496q141 278 235 692q4 2 -3 3q-3 1 -9 1q-4 0 -164 -145q-161 -146 -194 -146q-31 0 -70 45q-39 42 -39 68 q0 110 105 313q111 211 114 254q20 10 54 10q31 0 55 -43q20 -33 20 -59q0 1 -9.5 -13t-32 -47.5t-50.5 -78.5q-93 -143 -96 -238q54 26 123 86q86 81 104 97q73 65 170 157q20 42 56.5 120t46.5 99q117 211 221 211q28 0 51 -57q19 -49 19 -64q0 -46 -140 -204 q-67 -75 -143 -158q-41 -93 -152 -487q-132 -470 -325 -730q-149 -204 -340 -270q-100 -35 -189 -35q-217 0 -362 160q-139 151 -139 352z" />
<glyph unicode="z" horiz-adv-x="937" d="M113 35q31 36 155 211q43 77 252 383l-12 10q-10 0 -105 -14q-67 -11 -100 -41q-3 -51 -8 -60q-12 -30 -55 -30q-29 0 -76 41q-45 39 -45 69q0 124 295 139q58 2 204 29q2 0 64 23q47 20 57 20q25 0 48.5 -33t23.5 -59q0 -6 -8.5 -21t-9.5 -18q-55 -12 -84 -39 q-159 -131 -342 -481q-4 -2 3 -3l9 -1q3 0 168 65q167 66 254 66q23 0 61 -23v-43q-125 -70 -227 -100q-62 -18 -258 -115q-166 -84 -184 -84q-23 0 -54 54q-26 45 -26 55z" />
<glyph unicode="&#xa0;" />
<glyph unicode="&#x2000;" horiz-adv-x="982" />
<glyph unicode="&#x2001;" horiz-adv-x="1964" />
<glyph unicode="&#x2002;" horiz-adv-x="982" />
<glyph unicode="&#x2003;" horiz-adv-x="1964" />
<glyph unicode="&#x2004;" horiz-adv-x="654" />
<glyph unicode="&#x2005;" horiz-adv-x="491" />
<glyph unicode="&#x2006;" horiz-adv-x="327" />
<glyph unicode="&#x2007;" horiz-adv-x="327" />
<glyph unicode="&#x2008;" horiz-adv-x="245" />
<glyph unicode="&#x2009;" horiz-adv-x="392" />
<glyph unicode="&#x200a;" horiz-adv-x="109" />
<glyph unicode="&#x202f;" horiz-adv-x="392" />
<glyph unicode="&#x205f;" horiz-adv-x="491" />
<glyph unicode="&#x25fc;" horiz-adv-x="778" d="M0 0v778h778v-778h-778z" />
</font>
</defs>
</svg>
